# xmcd CD database file
#
# Track frame offsets:
#	150
#	14960
#	43481
#	69852
#	104269
#	128459
#	149690
#	166834
#
# Disc length: 2840 seconds
#
# Revision: 1
# Processed by: cddbd v1.5.2PL0 Copyright (c) Steve Scherf et al.
# Submitted via: CDex 1.50beta10
#
DISCID=710b1608
DTITLE=Charlie Daniels - Honey In The Rock (VM)
DYEAR=1973
DGENRE=Southern Rock
TTITLE0=Funky Junky
TTITLE1=Big Man
TTITLE2=Why Can't People
TTITLE3=Revelations
TTITLE4=Uneasy Rider
TTITLE5=Midnight Lady
TTITLE6=Somebody Love You
TTITLE7=No Place To Go
EXTD=YEAR: 1973
EXTT0=
EXTT1=
EXTT2=
EXTT3=
EXTT4=
EXTT5=
EXTT6=
EXTT7=
PLAYORDER=
